<?xml version="1.0" standalone="no"?><!DOCTYPE svg PUBLIC "-//W3C//DTD SVG 1.1//EN" "http://www.w3.org/Graphics/SVG/1.1/DTD/svg11.dtd"><svg t="1766720011264" class="icon" viewBox="0 0 1024 1024" version="1.1" xmlns="http://www.w3.org/2000/svg" p-id="4089" data-darkreader-inline-fill="" xmlns:xlink="http://www.w3.org/1999/xlink" width="256" height="256"><path d="M702.187018 465.779451c-8.352627 0-13.934431 5.581804-13.934431 13.934431v55.777883c0 103.183059-86.457725 186.849882-191.026196 181.268078-97.601255-4.196392-171.509961-89.248627-171.509961-186.849882v-50.196079c0-8.352627-5.581804-13.934431-13.934432-13.934431-8.372706 0-13.95451 5.581804-13.954509 13.934431v55.777883c0 110.150275 86.457725 200.784314 195.222588 209.157019v97.581177h-97.621333c-8.352627 0-13.934431 5.601882-13.934432 13.95451 0 8.372706 5.581804 13.95451 13.934432 13.954509h223.111529c8.352627 0 13.934431-5.581804 13.934431-13.954509 0-8.352627-5.581804-13.934431-13.934431-13.934432h-97.621333v-97.601255c110.170353-6.987294 195.222588-103.203137 195.222588-214.738823v-50.196079c0-8.352627-5.581804-13.934431-13.95451-13.934431z m-195.20251 223.071373a152.937412 152.937412 0 0 0 153.379137-153.359059v-181.268079a152.937412 152.937412 0 0 0-153.379137-153.379137 152.937412 152.937412 0 0 0-153.379137 153.399216v181.248a152.937412 152.937412 0 0 0 153.379137 153.379137z" fill="#8a8a8a" opacity=".804" p-id="4090" data-darkreader-inline-fill="" style="--darkreader-inline-fill: var(--darkreader-background-8a8a8a, #5e6568);" data-spm-anchor-id="a313x.search_index.0.i15.35033a81J3np3a" class="selected"></path><path d="M963.226704 502.462745c-1.706667 233.190902-182.934588 431.525647-416.306196 450.29898C312.745763 971.595294 104.010391 801.751843 65.259018 572.395922 26.166312 341.152627 183.741842 117.599373 408.058077 62.785255 635.446312 7.208157 871.307645 145.528471 942.304979 366.170353c14.215529 44.132392 20.580392 90.011608 20.921725 136.292392 0.240941 32.707765 50.979137 32.727843 50.738196 0C1012.278312 271.962353 852.996116 68.668235 628.679881 13.854118 403.721136-41.120627 165.71141 72.683922 62.066547 278.186667c-104.427922 207.169255-47.083922 465.819608 131.112157 612.592941 178.798431 147.335529 443.934118 150.387451 626.547451 8.212078 122.177255-95.131608 193.114353-241.985255 194.238745-396.549019 0.240941-32.727843-50.497255-32.707765-50.738196 0zM142.059018 198.174118l536.033882 536.033882 137.778196 137.778196c23.150431 23.150431 59.030588-12.729725 35.880157-35.880157L315.717371 300.092235 177.939175 162.293961c-23.17051-23.150431-59.030588 12.729725-35.880157 35.880157z" fill="#F94D4D" p-id="4091" data-darkreader-inline-fill="" style="--darkreader-inline-fill: var(--darkreader-background-f94d4d, #991111);"></path><path d="M963.226704 502.462745c-1.706667 233.190902-182.934588 431.525647-416.306196 450.29898C312.745763 971.595294 104.010391 801.751843 65.259018 572.395922 26.166312 341.152627 183.741842 117.599373 408.058077 62.785255 635.446312 7.208157 871.307645 145.528471 942.304979 366.170353c14.215529 44.132392 20.580392 90.011608 20.921725 136.292392 0.240941 32.707765 50.979137 32.727843 50.738196 0C1012.278312 271.962353 852.996116 68.668235 628.679881 13.854118 403.721136-41.120627 165.71141 72.683922 62.066547 278.186667c-104.427922 207.169255-47.083922 465.819608 131.112157 612.592941 178.798431 147.335529 443.934118 150.387451 626.547451 8.212078 122.177255-95.131608 193.114353-241.985255 194.238745-396.549019 0.240941-32.727843-50.497255-32.707765-50.738196 0zM142.059018 198.174118l536.033882 536.033882 137.778196 137.778196c23.150431 23.150431 59.030588-12.729725 35.880157-35.880157L315.717371 300.092235 177.939175 162.293961c-23.17051-23.150431-59.030588 12.729725-35.880157 35.880157z" fill="#F94D4D" p-id="4092" data-darkreader-inline-fill="" style="--darkreader-inline-fill: var(--darkreader-background-f94d4d, #991111);"></path></svg>